<?xml version="1.0" ?><svg data-name="Layer 3" id="Layer_3" viewBox="0 0 2050 2050" xmlns="http://www.w3.org/2000/svg"><defs><style>.cls-1{fill:#e0e1e2;}.cls-2{fill:#1682fc;}.cls-3{fill:#2e3a58;}</style></defs><title/><path class="cls-1" d="M1298.8,577.8q-149.1-71.1-299.5-63.5,122.1,5.9,243.3,63.5a31.3,31.3,0,0,1,15,41.4l-91.8,198.6c-40.9,88.5-51.7,188.3-29.3,283.3a390.6,390.6,0,0,1,10.3,90.2c0,65.1-15.4,124.8-40.9,171.3-36.2,65.8-55.9,139.4-55.9,214.5v1.4h56.1v-1.4c0-75.1,19.7-148.7,55.9-214.5,25.6-46.5,40.9-106.2,40.9-171.3a390.6,390.6,0,0,0-10.3-90.2c-22.4-95-11.6-194.8,29.3-283.3l91.8-198.6A31.3,31.3,0,0,0,1298.8,577.8Z"/><path class="cls-1" d="M749.7,577.8q148.9-71.1,299.4-63.5Q927,520.2,805.8,577.8a31.3,31.3,0,0,0-15,41.4l91.8,198.6c41,88.5,51.7,188.3,29.3,283.3a390.6,390.6,0,0,0-10.3,90.2c0,65.1,15.4,124.8,40.9,171.3,36.2,65.8,55.9,139.4,55.9,214.5v1.4H942.3v-1.4c0-75.1-19.7-148.7-55.9-214.5-25.5-46.5-40.9-106.2-40.9-171.3a390.6,390.6,0,0,1,10.3-90.2c22.4-95,11.6-194.8-29.3-283.3L734.7,619.2A31.3,31.3,0,0,1,749.7,577.8Z"/><path class="cls-2" d="M991.2,1533.5a5.1,5.1,0,0,1-5-4.5,488.4,488.4,0,0,0-9.6-58.5,5,5,0,0,1,3.7-6,5,5,0,0,1,6,3.8,497.2,497.2,0,0,1,9.4,55.2h60.2a5,5,0,0,1,5,5,5,5,0,0,1-5,5h-60a4.6,4.6,0,0,1-2.3-.6,6,6,0,0,1-1.9.6Zm76.5-56.6h-1.1a4.9,4.9,0,0,1-3.8-5.9,522.4,522.4,0,0,1,16.7-58.3,5,5,0,0,1,6.4-3,5.1,5.1,0,0,1,3.1,6.4,493.9,493.9,0,0,0-16.4,57A4.9,4.9,0,0,1,1067.7,1476.9Zm-103.1-60.1a5.2,5.2,0,0,1-4.7-3.3,503,503,0,0,0-23.3-54.6,5,5,0,0,1,2.3-6.7,5.1,5.1,0,0,1,6.7,2.2,503.2,503.2,0,0,1,23.7,55.7,4.9,4.9,0,0,1-3,6.4A4.7,4.7,0,0,1,964.6,1416.8Zm142.9-52.8a4.2,4.2,0,0,1-2.2-.5,5,5,0,0,1-2.3-6.7c3.4-6.9,7-13.9,10.8-20.7a241.4,241.4,0,0,0,14.9-32.9,4.9,4.9,0,0,1,6.4-2.9,5,5,0,0,1,3,6.4,248.7,248.7,0,0,1-15.6,34.2c-3.6,6.7-7.2,13.5-10.5,20.3A5,5,0,0,1,1107.5,1364Zm-192-56.5a5.2,5.2,0,0,1-4.8-3.3,323.5,323.5,0,0,1-14.8-59.1,5.1,5.1,0,0,1,4.2-5.7,5.1,5.1,0,0,1,5.7,4.2,303.1,303.1,0,0,0,14.4,57.2,5.1,5.1,0,0,1-3.1,6.4A4.5,4.5,0,0,1,915.5,1307.5Zm233-55.5h-.8a5,5,0,0,1-4.2-5.7,344.6,344.6,0,0,0,4.4-54.9v-4a5,5,0,0,1,4.9-5.1h.1a5.1,5.1,0,0,1,5,5v4.1a353.9,353.9,0,0,1-4.5,56.5A5,5,0,0,1,1148.5,1252Zm-251.6-62.4h-.1a5.1,5.1,0,0,1-4.9-5.1,354.5,354.5,0,0,1,6.3-60.5,5.1,5.1,0,0,1,5.9-3.9,4.8,4.8,0,0,1,3.9,5.8,355.1,355.1,0,0,0-6.1,58.8A5,5,0,0,1,896.9,1189.6Zm250.2-57a4.9,4.9,0,0,1-4.9-4.1c-.9-5-2-9.9-3.1-14.8a448.4,448.4,0,0,1-8.3-44.3,5,5,0,1,1,9.9-1.4c2,14.5,4.7,29.1,8.1,43.4,1.2,5,2.3,10.2,3.2,15.2a5,5,0,0,1-4,5.9Zm-232.7-61.5h-.7a5,5,0,0,1-4.3-5.6,449.5,449.5,0,0,0,4.2-59.2,5.1,5.1,0,0,1,5-4.9h.1a4.9,4.9,0,0,1,4.9,5,486.4,486.4,0,0,1-4.2,60.4A5.1,5.1,0,0,1,914.4,1071.1Zm216.7-57.2a5.1,5.1,0,0,1-5-4.9v-6.6a487.3,487.3,0,0,1,2.7-51.1l.3-2.9a5,5,0,0,1,5.5-4.4,5,5,0,0,1,4.4,5.5l-.3,2.9a492.5,492.5,0,0,0-2.6,50v6.4a4.9,4.9,0,0,1-4.9,5.1ZM915.4,951.4a5.1,5.1,0,0,1-5-4.4A465.4,465.4,0,0,0,900,888.5a5.1,5.1,0,0,1,3.7-6,5,5,0,0,1,6,3.7,480,480,0,0,1,10.7,59.6,5.1,5.1,0,0,1-4.4,5.6Zm228.9-56.5h-1.2a5.1,5.1,0,0,1-3.7-6,472.3,472.3,0,0,1,17.6-58,5,5,0,1,1,9.3,3.5,509,509,0,0,0-17.2,56.8A4.9,4.9,0,0,1,1144.3,894.9ZM887.2,835.1a5.2,5.2,0,0,1-4.7-3.3c-4.2-11-8.8-22.1-13.8-32.9l-10-21.7a5,5,0,0,1,2.4-6.7,5.2,5.2,0,0,1,6.7,2.5l10,21.7c5.1,11,9.8,22.3,14.1,33.6a5,5,0,0,1-2.9,6.4A3.9,3.9,0,0,1,887.2,835.1Zm298.2-52.6a5.4,5.4,0,0,1-2.1-.5,4.9,4.9,0,0,1-2.4-6.6l25.2-54.5a5,5,0,0,1,9,4.2L1190,779.6A5.2,5.2,0,0,1,1185.4,782.5ZM838.1,725.6a5.2,5.2,0,0,1-4.6-2.9l-25.2-54.4a5.1,5.1,0,0,1,2.5-6.7,5,5,0,0,1,6.6,2.5l25.2,54.4a5.1,5.1,0,0,1-2.5,6.7A4.5,4.5,0,0,1,838.1,725.6Zm397.7-52.1a4.9,4.9,0,0,1-4.6-7.1l23.3-50.3a5,5,0,0,1,.3-3.4,4.9,4.9,0,0,1,6.6-2.6l1.1.5a5.1,5.1,0,0,1,2.6,2.8,5.2,5.2,0,0,1-.1,3.9l-24.7,53.3A4.8,4.8,0,0,1,1235.8,673.5ZM793.6,619a5.1,5.1,0,0,1-4.6-3.1,5,5,0,0,1,2.7-6.5c18.7-8,37.8-15.2,56.6-21.3a5.1,5.1,0,0,1,6.3,3.2,5,5,0,0,1-3.3,6.3c-18.4,6-37.2,13.1-55.7,21A6.5,6.5,0,0,1,793.6,619Zm409.8-21-1.6-.3a573.5,573.5,0,0,0-57.2-15.9,5.1,5.1,0,0,1-3.8-6,5,5,0,0,1,5.9-3.8,569.7,569.7,0,0,1,58.3,16.3,5,5,0,0,1-1.6,9.7ZM907.6,582a5,5,0,0,1-1-9.9,565.8,565.8,0,0,1,59.6-10,5.1,5.1,0,0,1,5.6,4.4,5,5,0,0,1-4.4,5.5,580.1,580.1,0,0,0-58.7,9.9Zm178.9-10.1h-.5a524.1,524.1,0,0,0-58.5-3.3h-.8a5,5,0,0,1-5-5,4.9,4.9,0,0,1,4.9-5h.9a542.5,542.5,0,0,1,59.6,3.3,5,5,0,0,1-.6,10Z"/><path class="cls-1" d="M630.6,918c-53.2,0-98.7-18.8-116.8-45.3-5.5,7.9-8.5,16.5-8.5,25.6,0,39.1,56.1,70.9,125.3,70.9s125.2-31.8,125.2-70.9c0-9.1-3-17.7-8.4-25.6C729.3,899.2,683.8,918,630.6,918Z"/><path class="cls-1" d="M1419.4,918c-53.2,0-98.7-18.8-116.8-45.3-5.4,7.9-8.4,16.5-8.4,25.6,0,39.1,56,70.9,125.2,70.9s125.3-31.8,125.3-70.9c0-9.1-3-17.7-8.5-25.6C1518.1,899.2,1472.6,918,1419.4,918Z"/><path class="cls-3" d="M1106.1,1593.5H943.7a15,15,0,0,1-15-15v-1.4c0-71.3-18.7-142.9-54-207.3-27.6-50.1-42.8-113.6-42.8-178.5a408.5,408.5,0,0,1,10.7-93.7C864,1007,854,909.9,814.3,824.1L722.7,625.8a46.3,46.3,0,0,1,22.5-61.4c93.9-43.5,188.4-65.6,281-65.8s187.3,21.9,279,65.6h0a46.5,46.5,0,0,1,22.1,61.3l-91.8,198.6c-39.6,85.8-49.7,182.9-28.3,273.5a408.5,408.5,0,0,1,10.7,93.7c0,64.9-15.2,128.4-42.7,178.5-35.4,64.4-54.1,136-54.1,207.3v1.4A15,15,0,0,1,1106.1,1593.5Zm-147.6-30h132.8c2.2-71.8,22-143.5,57.6-208.1,25.2-45.8,39-104.1,39-164.1a376.2,376.2,0,0,0-9.9-86.8,446.4,446.4,0,0,1-9.4-149,456.1,456.1,0,0,1,39.7-144l91.8-198.6a16.4,16.4,0,0,0-7.8-21.6c-87.3-41.6-176.4-62.7-264.8-62.7h-1.2c-88.3.2-178.6,21.4-268.4,63a16.3,16.3,0,0,0-8,21.6l91.6,198.3a453.5,453.5,0,0,1,39.7,144,443.8,443.8,0,0,1-9.4,149,376.2,376.2,0,0,0-9.9,86.8c0,60,13.9,118.3,39.1,164.1C936.5,1420,956.3,1491.7,958.5,1563.5Z"/><path class="cls-3" d="M507.3,900.7a14.7,14.7,0,0,1-10.6-4.4l-28.1-28.1a202.9,202.9,0,0,1-35.8-238.4,204.3,204.3,0,0,1,146.8-105,199.8,199.8,0,0,1,97.2,8.2l84.5,28.6a15,15,0,0,1,1.4,27.8l-1.5.7-3.3,1.5a16.3,16.3,0,0,0-7.9,21.6h0l3.9,8.5a15.2,15.2,0,0,1,.6,11.1l-1.8,5.1a15,15,0,0,1-19,9.4l-85.8-29A112.5,112.5,0,0,0,499.2,724.7a114,114,0,0,0,33,79.9l28.7,28.7a14.8,14.8,0,0,1,4.2,13.1,15,15,0,0,1-8.4,11c-18.5,8.8-31.3,20.7-35.1,32.8a15.1,15.1,0,0,1-10.7,10.1A14.7,14.7,0,0,1,507.3,900.7ZM611.8,552.2a169.6,169.6,0,0,0-27.4,2.2A172.7,172.7,0,0,0,489.8,847l14,14a94.2,94.2,0,0,1,22-20.4L511,825.8a144.2,144.2,0,0,1-41.8-101.2c.2-46.5,21.9-88.6,59.7-115.6s84.6-34,128.7-19.2l61.1,20.7a46.1,46.1,0,0,1,7.2-29.2l-58.7-19.9A173.9,173.9,0,0,0,611.8,552.2Z"/><path class="cls-3" d="M1542.7,900.7a14.7,14.7,0,0,1-3.6-.4,15.1,15.1,0,0,1-10.7-10.1c-3.8-12.1-16.6-24-35.1-32.8a15,15,0,0,1-8.4-11,14.8,14.8,0,0,1,4.2-13.1l28.7-28.7a114,114,0,0,0,33-79.9,112.5,112.5,0,0,0-148.7-106.4l-85.8,29a15,15,0,0,1-19-9.4l-1.8-5.1a15.2,15.2,0,0,1,.6-11.1l3.9-8.5a16.3,16.3,0,0,0-7.9-21.6l-3.3-1.5-1.5-.7a15,15,0,0,1,1.4-27.8l84.5-28.6a199.8,199.8,0,0,1,97.2-8.2,202.5,202.5,0,0,1,155,277.4,201,201,0,0,1-44,66l-28.1,28.1A14.7,14.7,0,0,1,1542.7,900.7Zm-18.5-60.1a94.2,94.2,0,0,1,22,20.4l14-14a172.9,172.9,0,0,0,30.5-203.1,174.1,174.1,0,0,0-125.1-89.5,170.4,170.4,0,0,0-82.8,7l-58.7,19.9a46.1,46.1,0,0,1,7.2,29.2l61.2-20.7c44-14.8,90.9-7.9,128.6,19.2s59.5,69.1,59.7,115.6A144.2,144.2,0,0,1,1539,825.8Z"/><polygon class="cls-2" points="1046.5 741.5 1046.5 698.6 1003.5 698.6 1003.5 741.5 960.6 741.5 960.6 784.5 1003.5 784.5 1003.5 827.4 1046.5 827.4 1046.5 784.5 1089.4 784.5 1089.4 741.5 1046.5 741.5"/><path class="cls-2" d="M630.6,984.1c-78.7,0-140.3-37.7-140.3-85.8s61.6-85.9,140.3-85.9,140.2,37.7,140.2,85.9S709.2,984.1,630.6,984.1Zm0-141.7c-30.9,0-59.7,6.7-81.2,18.8-18.5,10.5-29.1,24-29.1,37.1s10.6,26.6,29.1,37c21.5,12.2,50.3,18.8,81.2,18.8s59.7-6.6,81.2-18.8c18.4-10.4,29-23.9,29-37s-10.6-26.6-29-37.1C690.3,849.1,661.5,842.4,630.6,842.4Z"/><path class="cls-2" d="M1419.4,984.1c-78.6,0-140.2-37.7-140.2-85.8s61.6-85.9,140.2-85.9,140.3,37.7,140.3,85.9S1498.1,984.1,1419.4,984.1Zm0-141.7c-30.9,0-59.7,6.7-81.2,18.8-18.4,10.5-29,24-29,37.1s10.6,26.6,29,37c21.5,12.2,50.3,18.8,81.2,18.8s59.7-6.6,81.2-18.8c18.5-10.4,29.1-23.9,29.1-37s-10.6-26.6-29.1-37.1C1479.1,849.1,1450.3,842.4,1419.4,842.4Z"/></svg>