<?xml version="1.0" ?><svg data-name="Layer 3" id="Layer_3" viewBox="0 0 2050 2050" xmlns="http://www.w3.org/2000/svg"><defs><style>.cls-1{fill:#e0e1e2;}.cls-2{fill:#1682fc;}.cls-3{fill:#2e3a58;}</style></defs><title/><path class="cls-1" d="M653.5,1281.3H439v30.6a65,65,0,0,0,65,64.9h89.4A105.9,105.9,0,0,1,653.5,1281.3Z"/><path class="cls-1" d="M1431.2,1281.3a106,106,0,0,1,60,95.5H1549a65,65,0,0,0,65-64.9v-30.6Z"/><path class="cls-1" d="M1339.3,1281.3h-594a106,106,0,0,1,60,95.5h474A106,106,0,0,1,1339.3,1281.3Z"/><path class="cls-2" d="M1606.5,1099.3h-266a15,15,0,0,1-15-15V940.1a15,15,0,0,1,15-15h156.6a15,15,0,0,1,10.6,4.4l88.6,88.6a86.5,86.5,0,0,1,25.2,61.1v5.2A14.9,14.9,0,0,1,1606.5,1099.3Z"/><path class="cls-1" d="M1271.9,1301.3V870.1h-40L1221,1376.8h22.7A115,115,0,0,0,1271.9,1301.3Z"/><path class="cls-3" d="M1164,1391.8H809.9a15,15,0,1,1,0-30H1164a52.9,52.9,0,0,0,52.9-52.8V805.7a52.9,52.9,0,0,0-52.9-52.8H504.2a52.9,52.9,0,0,0-52.9,52.8V1309a52.9,52.9,0,0,0,52.9,52.8h84.7a15,15,0,0,1,0,30H504.2a82.9,82.9,0,0,1-82.9-82.8V805.7a82.9,82.9,0,0,1,82.9-82.8H1164a82.9,82.9,0,0,1,82.9,82.8V1309A82.9,82.9,0,0,1,1164,1391.8Z"/><path class="cls-3" d="M1274.8,1391.8H1164a15,15,0,0,1,0-30h110.8a15,15,0,0,1,0,30Z"/><path class="cls-3" d="M1542.1,1391.8h-46.3a15,15,0,0,1,0-30h46.3a48.8,48.8,0,0,0,48.7-48.6l.7-234.1a56.6,56.6,0,0,0-16.4-39.8L1437.2,901.5a55.7,55.7,0,0,0-39.6-16.4H1231.9a15,15,0,0,1,0-30h165.7a85.1,85.1,0,0,1,60.8,25.2l137.9,137.8a86.5,86.5,0,0,1,25.2,61.1l-.7,234.1A78.8,78.8,0,0,1,1542.1,1391.8Z"/><polygon class="cls-2" points="867.1 979.2 867.1 913.1 801.1 913.1 801.1 979.2 735 979.2 735 1045.3 801.1 1045.3 801.1 1111.3 867.1 1111.3 867.1 1045.3 933.2 1045.3 933.2 979.2 867.1 979.2"/><path class="cls-3" d="M1318,1300.9H762.1a15,15,0,1,1,0-30H1318a15,15,0,0,1,0,30Z"/><path class="cls-3" d="M636.6,1300.9H436.3a15,15,0,1,1,0-30H636.6a15,15,0,0,1,0,30Z"/><path class="cls-3" d="M1599,1300.9H1462.2a15,15,0,0,1,0-30H1599a15,15,0,0,1,0,30Z"/><path class="cls-3" d="M1390.4,885.1h-81.9a15,15,0,0,1-15-15V840.2a56,56,0,0,1,111.9,0v29.9A15.1,15.1,0,0,1,1390.4,885.1Zm-66.9-30h51.9V840.2a26,26,0,0,0-51.9,0Z"/><path class="cls-2" d="M1132.2,1227.9h-68.5a5.8,5.8,0,1,1,0-11.6h64.4a6,6,0,0,1,4.1-1.6,5.7,5.7,0,0,1,5.7,5.7v1.7A5.7,5.7,0,0,1,1132.2,1227.9Zm-138.7,0H923.4a5.8,5.8,0,1,1,0-11.6h70.1a5.8,5.8,0,0,1,0,11.6Zm-140.3,0H783a5.8,5.8,0,0,1,0-11.6h70.2a5.8,5.8,0,1,1,0,11.6Zm-140.3,0H642.7a5.8,5.8,0,0,1,0-11.6h70.2a5.8,5.8,0,0,1,0,11.6Zm-140.4,0H536a5.8,5.8,0,0,1-5.8-5.8v-33.6a5.8,5.8,0,0,1,11.6,0v27.8h30.7a5.8,5.8,0,0,1,0,11.6Zm559.7-71.8a5.8,5.8,0,0,1-5.8-5.8v-70.2a5.7,5.7,0,0,1,5.8-5.7,5.6,5.6,0,0,1,5.7,5.7v70.2A5.7,5.7,0,0,1,1132.2,1156.1Zm-596.2-32a5.8,5.8,0,0,1-5.8-5.8v-70.1a5.8,5.8,0,0,1,11.6,0v70.1A5.8,5.8,0,0,1,536,1124.1Zm596.2-108.4a5.8,5.8,0,0,1-5.8-5.7V939.8a5.8,5.8,0,0,1,5.8-5.8,5.7,5.7,0,0,1,5.7,5.8V1010A5.7,5.7,0,0,1,1132.2,1015.7ZM536,983.8a5.8,5.8,0,0,1-5.8-5.8V907.8a5.8,5.8,0,0,1,11.6,0V978A5.8,5.8,0,0,1,536,983.8Zm596.2-108.4a5.8,5.8,0,0,1-5.8-5.8V808.1H1062a5.7,5.7,0,0,1-5.8-5.7,5.8,5.8,0,0,1,5.8-5.8h70.2a5.7,5.7,0,0,1,5.7,5.8v67.2A5.7,5.7,0,0,1,1132.2,875.4ZM536,843.4a5.7,5.7,0,0,1-5.8-5.7V802.4a5.8,5.8,0,0,1,5.8-5.8h34.9a5.7,5.7,0,0,1,5.7,5.8,5.6,5.6,0,0,1-5.7,5.7H541.8v29.6A5.7,5.7,0,0,1,536,843.4Zm455.9-35.3H921.7a5.7,5.7,0,0,1-5.8-5.7,5.8,5.8,0,0,1,5.8-5.8h70.2a5.8,5.8,0,0,1,5.7,5.8A5.7,5.7,0,0,1,991.9,808.1Zm-140.4,0H781.4a5.7,5.7,0,0,1-5.8-5.7,5.8,5.8,0,0,1,5.8-5.8h70.1a5.8,5.8,0,0,1,5.8,5.8A5.7,5.7,0,0,1,851.5,808.1Zm-140.3,0H641a5.7,5.7,0,0,1-5.7-5.7,5.8,5.8,0,0,1,5.7-5.8h70.2a5.8,5.8,0,0,1,5.8,5.8A5.7,5.7,0,0,1,711.2,808.1Z"/><path class="cls-2" d="M1349.4,763.3a15,15,0,0,1-15-15V715.2a15,15,0,0,1,30,0v33.1A15,15,0,0,1,1349.4,763.3Z"/><path class="cls-2" d="M1290.7,785.8a14.9,14.9,0,0,1-10.6-4.4l-23.5-23.5a14.9,14.9,0,0,1,0-21.2,15.1,15.1,0,0,1,21.2,0l23.5,23.5a15.1,15.1,0,0,1,0,21.2A15.3,15.3,0,0,1,1290.7,785.8Z"/><path class="cls-2" d="M1408.2,785.8a15.1,15.1,0,0,1-10.6-4.4,14.9,14.9,0,0,1,0-21.2l23.5-23.5a15,15,0,0,1,21.2,21.3l-23.5,23.4A14.9,14.9,0,0,1,1408.2,785.8Z"/><path class="cls-2" d="M1385.3,1502.3a125.5,125.5,0,1,1,125.5-125.5A125.6,125.6,0,0,1,1385.3,1502.3Zm0-221a95.5,95.5,0,1,0,95.5,95.5A95.6,95.6,0,0,0,1385.3,1281.3Z"/><path class="cls-2" d="M699.4,1281.3a95.5,95.5,0,1,0,95.5,95.5A95.6,95.6,0,0,0,699.4,1281.3Zm0,221a125.5,125.5,0,1,1,125.5-125.5A125.6,125.6,0,0,1,699.4,1502.3Z"/></svg>